<?xml version="1.0" encoding="UTF-8"?>
<svg id="fuxaWidget"
     xmlns="http://www.w3.org/2000/svg"
     viewBox="0 0 200 200"
     width="100%" height="100%"
     preserveAspectRatio="xMidYMid meet"
     style="background:transparent;">

<!-- Propeller -->
<g id="propeller" transform="translate(100,100)">

  <!-- Hub -->
  <circle cx="0" cy="0" r="10" fill="#666"/>

  <!-- Blades -->
  <g id="blades">

    <path d="M0,-10 C25,-35 50,-35 65,-10 C45,-5 25,-2 0,-4 Z" fill="#888"/>
    <path d="M0,-10 C25,-35 50,-35 65,-10 C45,-5 25,-2 0,-4 Z" fill="#888" transform="rotate(72)"/>
    <path d="M0,-10 C25,-35 50,-35 65,-10 C45,-5 25,-2 0,-4 Z" fill="#888" transform="rotate(144)"/>
    <path d="M0,-10 C25,-35 50,-35 65,-10 C45,-5 25,-2 0,-4 Z" fill="#888" transform="rotate(216)"/>
    <path d="M0,-10 C25,-35 50,-35 65,-10 C45,-5 25,-2 0,-4 Z" fill="#888" transform="rotate(288)"/>

  </g>

</g>

<script><![CDATA[

//!export-start
let _pb_run = false;        // Start / Stop
let _pb_reverse = false;    // Direction
let _pn_speed = 3;          // Rotation speed
let _pc_color = "#888";     // Blade color
//!export-end

const propeller = document.getElementById("propeller");
const blades = document.getElementById("blades");

let angle = 0;
let animationId = null;

function putValue(id, value){

  if(id === "_pb_run")
    _pb_run = (value === true || value === 1 || value === '1');

  if(id === "_pb_reverse")
    _pb_reverse = (value === true || value === 1 || value === '1');

  if(id === "_pn_speed")
    _pn_speed = Number(value);

  if(id === "_pc_color")
    _pc_color = value;

  updateColor();
  controlAnimation();
}

function updateColor(){

  blades.querySelectorAll("path").forEach(b =>
    b.setAttribute("fill", _pc_color)
  );
}

function animatePropeller(){

  if(_pb_reverse){
    angle -= _pn_speed;   // reverse
  } else {
    angle += _pn_speed;   // normal
  }

  propeller.setAttribute(
    "transform",
    "translate(100,100) rotate(" + angle + ")"
  );

  animationId = requestAnimationFrame(animatePropeller);
}

function controlAnimation(){

  if(_pb_run){
    if(!animationId)
      animatePropeller();
  } else {
    cancelAnimationFrame(animationId);
    animationId = null;
  }

}

updateColor();
controlAnimation();

]]></script>

</svg>
